<?xml version="1.0" encoding="UTF-8"?>
<svg width="70px" height="95px" viewBox="0 0 70 95" version="1.1" xmlns="http://www.w3.org/2000/svg" xmlns:xlink="http://www.w3.org/1999/xlink">
    <!-- Generator: Sketch 43.1 (39012) - http://www.bohemiancoding.com/sketch -->
    <title>Shape</title>
    <desc>Created with Sketch.</desc>
    <defs></defs>
    <g id="Page-1" stroke="none" stroke-width="1" fill="none" fill-rule="evenodd">
        <g id="twitter" fill-rule="nonzero" fill="#FFFFFF">
            <path d="M27.11,67.145 C29.311,69.415 31.982,70.549 35.121,70.549 L57.733,70.549 C60.868,70.549 63.563,71.708 65.805,74.024 C68.05,76.336 69.169,79.108 69.169,82.344 C69.169,85.58 68.05,88.362 65.805,90.668 C63.563,92.979 60.877,94.135 57.735,94.135 L35.131,94.135 C25.715,94.135 17.669,90.69 10.988,83.791 C4.302,76.896 0.962,68.589 0.962,58.872 L0.962,11.802 C0.962,8.473 2.076,5.672 4.302,3.402 C6.527,1.136 9.247,0 12.457,0 C15.572,0 18.253,1.155 20.473,3.473 C22.702,5.782 23.817,8.554 23.817,11.794 L23.817,23.585 L57.702,23.585 C60.85,23.585 63.549,24.743 65.8,27.056 C68.053,29.367 69.173,32.142 69.173,35.381 C69.173,38.614 68.053,41.39 65.808,43.702 C63.566,46.013 60.872,47.17 57.736,47.17 L23.814,47.17 L23.814,58.861 C23.814,62.107 24.911,64.867 27.11,67.145 Z" id="Shape"></path>
        </g>
    </g>
</svg>